<svg width="310" height="110" viewBox="0 0 310 110" fill="none" xmlns="http://www.w3.org/2000/svg">
<g id="VDS logo">
<rect id="Rectangle 3" x="3" y="11" width="304" height="88" stroke="white" stroke-width="5"/>
<path id="VDS" d="M117.64 24L89.74 87H83.17L55.27 24H62.47L86.59 78.72L110.89 24H117.64ZM126.783 24H152.433C159.093 24 164.973 25.35 170.073 28.05C175.173 30.69 179.133 34.41 181.953 39.21C184.773 43.95 186.183 49.38 186.183 55.5C186.183 61.62 184.773 67.08 181.953 71.88C179.133 76.62 175.173 80.34 170.073 83.04C164.973 85.68 159.093 87 152.433 87H126.783V24ZM152.073 81.24C157.593 81.24 162.423 80.16 166.563 78C170.703 75.78 173.913 72.75 176.193 68.91C178.473 65.01 179.613 60.54 179.613 55.5C179.613 50.46 178.473 46.02 176.193 42.18C173.913 38.28 170.703 35.25 166.563 33.09C162.423 30.87 157.593 29.76 152.073 29.76H133.443V81.24H152.073ZM218.509 87.54C213.829 87.54 209.329 86.79 205.009 85.29C200.749 83.79 197.449 81.81 195.109 79.35L197.719 74.22C199.999 76.5 203.029 78.36 206.809 79.8C210.589 81.18 214.489 81.87 218.509 81.87C224.149 81.87 228.379 80.85 231.199 78.81C234.019 76.71 235.429 74.01 235.429 70.71C235.429 68.19 234.649 66.18 233.089 64.68C231.589 63.18 229.729 62.04 227.509 61.26C225.289 60.42 222.199 59.52 218.239 58.56C213.499 57.36 209.719 56.22 206.899 55.14C204.079 54 201.649 52.29 199.609 50.01C197.629 47.73 196.639 44.64 196.639 40.74C196.639 37.56 197.479 34.68 199.159 32.1C200.839 29.46 203.419 27.36 206.899 25.8C210.379 24.24 214.699 23.46 219.859 23.46C223.459 23.46 226.969 23.97 230.389 24.99C233.869 25.95 236.869 27.3 239.389 29.04L237.139 34.35C234.499 32.61 231.679 31.32 228.679 30.48C225.679 29.58 222.739 29.13 219.859 29.13C214.339 29.13 210.169 30.21 207.349 32.37C204.589 34.47 203.209 37.2 203.209 40.56C203.209 43.08 203.959 45.12 205.459 46.68C207.019 48.18 208.939 49.35 211.219 50.19C213.559 50.97 216.679 51.84 220.579 52.8C225.199 53.94 228.919 55.08 231.739 56.22C234.619 57.3 237.049 58.98 239.029 61.26C241.009 63.48 241.999 66.51 241.999 70.35C241.999 73.53 241.129 76.44 239.389 79.08C237.709 81.66 235.099 83.73 231.559 85.29C228.019 86.79 223.669 87.54 218.509 87.54Z" fill="white"/>
</g>
</svg>
